<svg width="272" height="27" viewBox="0 0 272 27" fill="white" xmlns="http://www.w3.org/2000/svg">
<path d="M0.279297 1.66211H4.84961V10.0117C7.1582 9.92969 9.02148 9.44336 10.4395 8.55273C12.6777 7.1582 13.9844 4.86133 14.3594 1.66211H19.1055C18.7891 4.04102 18.1738 6.02734 17.2598 7.62109C16.2988 9.28516 14.9219 10.6445 13.1289 11.6992L22.0234 22.8965H15.9414L9.17383 13.3516C7.97852 13.6797 6.53711 13.8613 4.84961 13.8965V22.8965H0.279297V1.66211ZM49.9375 9.2207V8.88672C49.9375 5.99219 48.5605 4.54492 45.8066 4.54492C43.2285 4.54492 40.9082 5.32422 38.8457 6.88281L37.0527 3.63086C39.7598 1.86133 42.7305 0.976562 45.9648 0.976562C49.082 0.976562 51.4082 1.87305 52.9434 3.66602C54.0098 4.89648 54.543 6.71289 54.543 9.11523V16.5332C54.543 19.2754 54.9648 21.3965 55.8086 22.8965H51.5195C51.0156 21.9238 50.6816 20.8105 50.5176 19.5566H50.3945C49.7969 20.7285 48.8359 21.7188 47.5117 22.5273C46.4336 23.1836 45.0098 23.5117 43.2402 23.5117C41.1426 23.5117 39.4082 22.8965 38.0371 21.666C36.6074 20.377 35.8926 18.7363 35.8926 16.7441C35.8926 11.7285 39.9473 9.2207 48.0566 9.2207H49.9375ZM49.9375 12.5254H48.5312C45.7891 12.5254 43.7324 12.877 42.3613 13.5801C41.1895 14.1777 40.6035 15.209 40.6035 16.6738C40.6035 17.6582 40.9551 18.4375 41.6582 19.0117C42.3262 19.5625 43.1934 19.8379 44.2598 19.8379C45.6777 19.8379 46.9492 19.334 48.0742 18.3262C49.3164 17.2246 49.9375 15.8066 49.9375 14.0723V12.5254ZM76.252 1.62695V4.54492C78.1973 2.23633 80.6406 1.08203 83.582 1.08203C86.5352 1.08203 88.9141 2.06641 90.7188 4.03516C92.4414 5.89844 93.3027 8.40625 93.3027 11.5586C93.3027 14.2188 92.6875 16.4453 91.457 18.2383C89.6875 20.8164 87.0859 22.1055 83.6523 22.1055C80.5352 22.1055 78.1855 21.0391 76.6035 18.9062V26.2891H71.8926V1.62695H76.252ZM76.6035 14.8281C78.291 17.2539 80.2598 18.4668 82.5098 18.4668C84.3027 18.4668 85.7207 17.875 86.7637 16.6914C87.8418 15.4727 88.3809 13.7441 88.3809 11.5059C88.3809 9.47852 87.9297 7.88477 87.0273 6.72461C85.9961 5.41211 84.4902 4.75586 82.5098 4.75586C81.0918 4.75586 79.8203 5.20117 78.6953 6.0918C77.8281 6.7832 77.1309 7.73242 76.6035 8.93945V14.8281ZM107.998 1.66211H128.02V5.81055H120.373V22.8965H115.627V5.81055H107.998V1.66211ZM154.035 0.976562C157.258 0.976562 159.918 2.07227 162.016 4.26367C164.008 6.33789 165.004 9.01562 165.004 12.2969C165.004 15.4375 164.113 18.0273 162.332 20.0664C160.246 22.4336 157.463 23.6172 153.982 23.6172C150.396 23.6172 147.561 22.3633 145.475 19.8555C143.811 17.8398 142.979 15.3203 142.979 12.2969C142.979 8.08984 144.543 4.9375 147.672 2.83984C149.523 1.59766 151.645 0.976562 154.035 0.976562ZM153.965 4.58008C152.594 4.58008 151.363 5.05469 150.273 6.00391C148.645 7.41016 147.83 9.50781 147.83 12.2969C147.83 13.6094 148.029 14.793 148.428 15.8477C148.814 16.8555 149.365 17.6934 150.08 18.3613C151.158 19.3691 152.471 19.873 154.018 19.873C156.068 19.873 157.668 19.0117 158.816 17.2891C159.707 15.9414 160.152 14.2715 160.152 12.2793C160.152 9.9707 159.555 8.10156 158.359 6.67188C157.188 5.27734 155.723 4.58008 153.965 4.58008ZM179.84 1.66211H184.445V8.02539C184.445 9.29102 184.715 10.2227 185.254 10.8203C185.875 11.5 186.953 11.8398 188.488 11.8398C190.938 11.8398 193.059 11.1602 194.852 9.80078V1.66211H199.457V22.8965H194.852V13.8965C192.59 15.3379 190.141 16.0586 187.504 16.0586C182.395 16.0586 179.84 13.5859 179.84 8.64062V1.66211ZM216.279 1.66211H220.85V10.0117C223.158 9.92969 225.021 9.44336 226.439 8.55273C228.678 7.1582 229.984 4.86133 230.359 1.66211H235.105C234.789 4.04102 234.174 6.02734 233.26 7.62109C232.299 9.28516 230.922 10.6445 229.129 11.6992L238.023 22.8965H231.941L225.174 13.3516C223.979 13.6797 222.537 13.8613 220.85 13.8965V22.8965H216.279V1.66211ZM252.104 1.66211H256.709V14.4414L267.326 4.07031V1.66211H271.896V22.8965H267.326V9.94141L256.709 20.3828V22.8965H252.104V1.66211Z" fill="white"/>
</svg>
